<?xml version="1.0" encoding="utf-8"?>
<!-- Generator: Adobe Illustrator 16.0.0, SVG Export Plug-In . SVG Version: 6.00 Build 0)  -->
<!DOCTYPE svg PUBLIC "-//W3C//DTD SVG 1.1//EN" "http://www.w3.org/Graphics/SVG/1.1/DTD/svg11.dtd">
<svg version="1.1" id="Layer_1" xmlns="http://www.w3.org/2000/svg" xmlns:xlink="http://www.w3.org/1999/xlink" x="0px" y="0px"
	 width="612px" height="792px" viewBox="0 0 612 792" enable-background="new 0 0 612 792" xml:space="preserve">
<path fill="#2929FF" d="M280.615,776.059C93.696,450.211,59,416.77,59,297.015C59,132.977,169.585,0,306,0
	c136.413,0,247,132.977,247,297.015c0,119.754-34.696,153.196-221.616,479.043C319.117,797.366,292.881,797.365,280.615,776.059
	L280.615,776.059z M306,378.5c56.839,0,102.916-45.944,102.916-102.621c0-56.677-46.077-102.621-102.916-102.621
	c-56.84,0-102.917,45.944-102.917,102.621C203.084,332.556,249.16,378.5,306,378.5z"/>
</svg>
