<?xml version="1.0" encoding="utf-8"?>
<!-- Generator: Adobe Illustrator 16.0.0, SVG Export Plug-In . SVG Version: 6.00 Build 0)  -->
<!DOCTYPE svg PUBLIC "-//W3C//DTD SVG 1.1//EN" "http://www.w3.org/Graphics/SVG/1.1/DTD/svg11.dtd">
<svg version="1.1" id="Layer_1" xmlns="http://www.w3.org/2000/svg" xmlns:xlink="http://www.w3.org/1999/xlink" x="0px" y="0px"
	 width="612px" height="792px" viewBox="0 0 612 792" enable-background="new 0 0 612 792" xml:space="preserve">
<path fill="#FF0000" d="M293.615,776.059C106.696,450.211,72,416.769,72,297.015C72,132.977,182.585,0,319,0
	c136.414,0,247,132.977,247,297.015c0,119.754-34.696,153.196-221.616,479.044C332.118,797.366,305.881,797.365,293.615,776.059
	L293.615,776.059z M319,378.5c56.839,0,102.917-45.944,102.917-102.621c0-56.677-46.078-102.621-102.917-102.621
	c-56.84,0-102.917,45.944-102.917,102.621C216.084,332.556,262.16,378.5,319,378.5z"/>
</svg>
